<?xml version="1.0" encoding="UTF-8"?>
<svg id="Layer_1" xmlns="http://www.w3.org/2000/svg" version="1.1" viewBox="0 0 160 160">
  <defs>
    <style>
      .st0 {
        fill: #05ff7f;
      }
    </style>
  </defs>
  <path class="st0" d="M107.6,17.6c-.8,2.9,2,4.1,1.8,6.2,0,.5-4.2,6.6-4.9,7.3-1.1,1.1-3.8,3.4-5.3,3.4-3.5,0-10.4-10.2-10.3-13.2,0-.8,3-3.2,2.6-6-1.1-7-11.3-3.9-8.2,3,.6,1.4,2.7,1.9,2.9,3,0,.3-1.9,5.5-2.2,6.2-5.6,12.7-12.1,10.3-19.7.8-.6-.8-4.4-6.4-4.4-6.8,0-.4,1.7-2.3,1.9-2.9,2.7-5.7-4.4-10.9-8.8-6.7-1.9,1.8-1.9,5.7-.3,7.7,1.1,1.4,4.2,2.1,4.3,2.3.2.2.5,4.9.5,5.5,0,5.3-1.9,18-9.3,16.9-6.3-1-8.6-5-13-8.4-.4-.3-.5.1-.6,0,2-3,.8-7.7-3.2-8.1-.3,0-1.9,0-1.8.5-.2,0-.4,0-.6.2-3.7,1.5-2.8,6.9.8,8.2.7.2,2.2.1,2.5.4.3.3.9,3.1.9,3.7.3,2.4,0,9-.9,11.2-.9,2.2-1.6,2.8-4,2.9-2.1,0-10.5-2.8-11.8-4.3-1.3-1.7-.2-4.3-2.2-6.1-3.7-3.4-9.2.8-6.5,5.2,1.6,2.5,5.1,1.4,6.7,2.5.7.5,8.6,10.1,9,10.9.7,1.5.6,4.3,1.4,5.7.8,1.6,5.1,3.3,6.1,5.1.6,1.3-.3,2.2.2,3.3.3.7,1.4.9,1.5,1.1,0,0-.1.5.1.9.4.6.9.7,1.3,1.5,1.5,2.6,0,5.1,2.3,7,1.7,1.4,7.6.9,9.8.6,1-.1,1.9-.4,2.9-.5,12.5-2,25.1-5.2,37.1-9.2,5.1-1.7,21.4-7.5,24.6-11.3,1.2-1.4,1.5-3.2.7-4.9-.7-1.4-1.5-2.3-1.6-4.3,0-.5.8-3.2.8-3.7-.2-1.4-1.5-1.7-1.7-3.3-.3-2.1,2.9-5.6,2.6-7.4-.2-1.5-1.8-4-2.1-5.5-.1-.8.8-7.5,1-8.7.1-.7.9-5.3,1-5.5.5-.9,2.3-.9,3.3-3.4,2.7-7-6.2-8.2-7.6-2.9ZM76.4,79.2c-19.1,6-35.7,7.6-36.9,3.6-1.2-4,13.3-12,32.4-18s35.7-7.6,36.9-3.6c1.2,4-13.3,12-32.4,18Z"/>
  <g>
    <path class="st0" d="M32.7,127.2v-25h4.7v1.5c1.5-1.2,3.2-1.7,5.1-1.7,1.7,0,3.2.4,4.6,1.2s2.5,1.9,3.3,3.3c.8,1.4,1.2,3,1.2,4.7s-.4,3.3-1.2,4.7c-.8,1.4-1.9,2.5-3.3,3.3s-3,1.2-4.7,1.2-1.8-.1-2.6-.4c-.8-.3-1.6-.6-2.3-1.1v8.3h-4.7ZM41.7,116.4c1,0,1.9-.2,2.7-.7.8-.4,1.4-1.1,1.9-1.9s.7-1.7.7-2.7-.2-1.9-.7-2.7c-.5-.8-1.1-1.4-1.9-1.9s-1.7-.7-2.7-.7-1.7.1-2.4.4c-.7.3-1.4.7-1.9,1.3v7c.5.5,1.1.9,1.9,1.2.7.3,1.5.4,2.4.4Z"/>
    <path class="st0" d="M54.5,120.2v-18h4.8v2c.6-.8,1.2-1.4,2.1-1.8.8-.4,1.7-.6,2.7-.6.9,0,1.6.1,2,.4v4.2c-.4-.2-.8-.3-1.2-.4s-.8-.1-1.3-.1c-.9,0-1.8.2-2.5.7s-1.4,1.1-1.8,2v11.7h-4.8Z"/>
    <path class="st0" d="M76.7,120.5c-1.8,0-3.4-.4-4.9-1.3-1.5-.8-2.6-2-3.5-3.3-.9-1.4-1.3-3-1.3-4.7s.4-3.3,1.2-4.7c.8-1.4,1.9-2.5,3.3-3.4,1.4-.8,3-1.2,4.7-1.2s3.3.4,4.6,1.3,2.4,2,3.2,3.4c.8,1.5,1.2,3.1,1.2,5v1.2h-13.3c.2.7.6,1.4,1,1.9s1.1,1,1.8,1.3,1.4.5,2.2.5,1.5-.1,2.2-.4c.7-.2,1.3-.6,1.8-1.1l3.1,2.8c-1.1.9-2.2,1.6-3.4,2-1.2.4-2.5.6-3.9.6ZM71.8,109.4h8.8c-.2-.7-.5-1.3-.9-1.9-.4-.5-.9-1-1.5-1.3s-1.2-.4-1.9-.4-1.4.1-2,.4c-.6.3-1.1.7-1.5,1.2-.4.5-.7,1.2-.9,1.9Z"/>
    <path class="st0" d="M95,120.5c-1.6,0-3.1-.2-4.5-.6-1.4-.4-2.6-1-3.7-1.8l2.3-3.2c1,.7,2,1.2,3,1.6,1,.3,1.9.5,2.8.5s1.9-.2,2.5-.5c.6-.4.9-.8.9-1.4s-.2-.8-.5-1.1c-.4-.3-.9-.5-1.7-.6l-3.5-.5c-1.8-.3-3.1-.9-4.1-1.7-.9-.9-1.4-2.1-1.4-3.5s.3-2.2.9-3c.6-.9,1.5-1.5,2.6-2,1.1-.5,2.4-.7,3.9-.7s2.6.2,3.9.6c1.3.4,2.4.9,3.5,1.7l-2.3,3.1c-1-.6-1.9-1.1-2.8-1.3-.9-.3-1.8-.4-2.7-.4s-1.5.2-2.1.5-.8.7-.8,1.3.2.9.6,1.1c.4.3,1,.5,1.9.6l3.5.5c1.8.3,3.2.8,4.1,1.7.9.9,1.4,2,1.4,3.4s-.3,2.2-1,3.1-1.6,1.6-2.8,2.1c-1.2.5-2.5.8-4.1.8Z"/>
    <path class="st0" d="M107.6,100.1c-.7,0-1.4-.3-1.9-.8-.5-.5-.8-1.2-.8-1.9s.3-1.4.8-1.9c.5-.5,1.2-.8,1.9-.8s1.4.3,1.9.8c.5.5.8,1.1.8,1.9s-.3,1.4-.8,1.9c-.5.5-1.2.8-1.9.8ZM105.2,120.2v-18h4.7v18h-4.7Z"/>
    <path class="st0" d="M122,120.4c-1.7,0-3.2-.4-4.6-1.2-1.4-.8-2.5-1.9-3.3-3.3-.8-1.4-1.2-3-1.2-4.7s.4-3.3,1.2-4.7c.8-1.4,1.9-2.5,3.3-3.3,1.4-.8,3-1.2,4.7-1.2s1.8.1,2.6.4c.8.2,1.6.6,2.3,1.1v-7.4l4.7-.8v25h-4.7v-1.5c-1.5,1.2-3.2,1.7-5.1,1.7ZM122.7,116.4c.9,0,1.6-.1,2.4-.4.7-.3,1.4-.7,1.9-1.3v-7c-.5-.5-1.2-.9-1.9-1.2-.7-.3-1.5-.4-2.4-.4s-1.9.2-2.7.7c-.8.4-1.4,1.1-1.9,1.8-.5.8-.7,1.7-.7,2.6s.2,1.9.7,2.7c.5.8,1.1,1.4,1.9,1.9.8.5,1.7.7,2.7.7Z"/>
    <path class="st0" d="M141.1,120.5c-1.3,0-2.4-.2-3.4-.7-1-.5-1.8-1.1-2.3-2-.6-.8-.8-1.8-.8-2.9,0-1.7.6-3.1,1.9-4,1.3-1,3.1-1.4,5.4-1.4s3,.2,4.4.7v-1.3c0-1-.3-1.8-1-2.3s-1.6-.8-2.8-.8-1.6.1-2.5.4c-.9.2-1.9.6-3,1.1l-1.7-3.5c1.4-.6,2.8-1.1,4.1-1.4,1.3-.3,2.6-.5,3.9-.5,2.5,0,4.4.6,5.7,1.7,1.3,1.2,2,2.8,2,4.9v11.7h-4.7v-1.3c-.7.6-1.5,1-2.4,1.2s-1.8.4-2.8.4ZM139.1,114.9c0,.7.3,1.2.9,1.6.6.4,1.4.6,2.4.6s1.5,0,2.2-.3c.7-.2,1.3-.5,1.8-.9v-2.6c-.6-.3-1.2-.4-1.8-.5-.6-.1-1.3-.2-2-.2-1.1,0-1.9.2-2.5.6s-.9.9-.9,1.7Z"/>
    <path class="st0" d="M35.2,150.4c-.8,0-1.4-.3-2-.8-.5-.5-.8-1.2-.8-2s.3-1.4.8-2c.5-.5,1.2-.8,2-.8s1.4.3,2,.8c.5.5.8,1.2.8,2s-.3,1.4-.8,2c-.5.5-1.2.8-2,.8Z"/>
    <path class="st0" d="M49.3,150.5c-1.7,0-3.3-.4-4.7-1.2-1.4-.8-2.5-1.9-3.4-3.3s-1.3-3-1.3-4.8.4-3.3,1.2-4.7c.8-1.4,2-2.5,3.4-3.3,1.4-.8,3-1.2,4.8-1.2s2.8.3,4.1.8c1.3.6,2.4,1.3,3.3,2.4l-2.9,3.1c-.7-.7-1.4-1.3-2.1-1.6-.7-.3-1.5-.5-2.4-.5s-1.7.2-2.5.7c-.7.4-1.3,1.1-1.7,1.8s-.6,1.7-.6,2.7.2,1.8.7,2.6c.4.8,1,1.4,1.8,1.9.7.5,1.6.7,2.5.7s1.6-.2,2.3-.5c.7-.3,1.4-.9,2-1.6l2.8,3c-.9,1-2,1.8-3.3,2.4-1.3.6-2.6.8-4,.8Z"/>
    <path class="st0" d="M59.1,150.1v-24.2l4.7-.8v25h-4.7Z"/>
    <path class="st0" d="M74.5,150.5c-1.4,0-2.6-.3-3.7-.9-1.1-.6-1.9-1.5-2.5-2.6-.6-1.1-.9-2.3-.9-3.7v-11.2h4.7v10.5c0,1.2.3,2.1,1,2.8.7.7,1.6,1,2.7,1s1.5-.2,2.1-.5c.6-.3,1.2-.8,1.6-1.3v-12.5h4.7v18h-4.7v-1.5c-1.4,1.2-3.1,1.8-5.1,1.8Z"/>
    <path class="st0" d="M88,150.1v-24.2l4.7-.8v8.4c1.4-1.1,3.1-1.7,5-1.7,1.7,0,3.2.4,4.6,1.2s2.5,1.9,3.3,3.3c.8,1.4,1.2,3,1.2,4.7s-.4,3.3-1.2,4.7c-.8,1.4-1.9,2.5-3.3,3.3s-3,1.2-4.7,1.2-1.8-.1-2.6-.4-1.6-.6-2.3-1.1v1.2h-4.7ZM97,146.4c1,0,1.9-.2,2.7-.7.8-.4,1.4-1.1,1.9-1.9s.7-1.7.7-2.7-.2-1.9-.7-2.7c-.5-.8-1.1-1.4-1.9-1.9s-1.7-.7-2.7-.7-1.7.1-2.4.4c-.7.3-1.4.7-1.9,1.3v7c.5.5,1.1.9,1.9,1.2.7.3,1.5.4,2.4.4Z"/>
  </g>
</svg>